# AST/ASF file generated using VICON BodyLanguage
# -----------------------------------------------
:version 1.10
:name VICON
:units
  mass 1.0
  length 0.45
  angle deg
:documentation
   .ast/.asf automatically generated from VICON data using
   VICON BodyBuilder and BodyLanguage model FoxedUp or BRILLIANT.MOD
:root
   order TX TY TZ RX RY RZ
   axis XYZ
   position 0 0 0  
   orientation 0 -0 0 
:bonedata
  begin
     id 1 
     name lhipjoint
     direction 0.515797 -0.759363 0.396637 
     length 2.47888 
     axis 0 -0 0  XYZ
  end
  begin
     id 2 
     name lfemur
     direction 0.34202 -0.939693 0  
     length 6.81885  
     axis 0 -0 20  XYZ
    dof rx ry rz
    limits (-160.0 20.0)
           (-70.0 70.0)
           (-60.0 70.0)
  end
  begin
     id 3 
     name ltibia
     direction 0.342037 -0.939687 0   
     length 7.89258   
     axis 0 -0 20   XYZ
    dof rx
    limits (-10.0 170.0)
  end
  begin
     id 4 
     name lfoot
     direction 0.173497 -0.476678 0.861787   
     length 2.51543   
     axis -90 -1.13533e-015 20   XYZ
    dof rx rz
    limits (-45.0 90.0)
           (-70.0 20.0)
  end
  begin
     id 5 
     name ltoes
     direction 1.53564e-011 -4.21897e-011 1   
     length 1.21388   
     axis -90 -1.13533e-015 20   XYZ
    dof rx
    limits (-90.0 20.0)
  end
  begin
     id 6 
     name rhipjoint
     direction -0.489454 -0.772941 0.403729   
     length 2.43534  
     axis 0 -0 0  XYZ 
  end
  begin
     id 7 
     name rfemur
     direction -0.34202 -0.939693 0   
     length 7.10357   
     axis 0 -0 -20   XYZ
    dof rx ry rz
    limits (-160.0 20.0)
           (-70.0 70.0)
           (-70.0 60.0)
  end
  begin
     id 8 
     name rtibia
     direction -0.34202 -0.939693 0   
     length 9.16127   
     axis 0 -0 -20   XYZ
    dof rx
    limits (-10.0 170.0)
 end
 begin
     id 9 
     name rfoot
     direction -0.270974 -0.748671 0.605033   
     length 1.74894  
     axis -90 1.13533e-015 -20   XYZ
    dof rx rz
    limits (-45.0 90.0)
           (-20.0 70.0)
  end
  begin
     id 10 
     name rtoes
     direction -1.53557e-011 -4.21759e-011 1   
     length 0.787585   
     axis -90 1.13533e-015 -20   XYZ
    dof rx
    limits (-90.0 20.0)
  end
  begin
     id 11 
     name lowerback
     direction -0.0140249 0.999561 0.0260968   
     length 2.16963   
     axis 0 -0 0   XYZ
    dof rx ry rz
    limits (-20.0 45.0)
           (-30.0 30.0)
           (-30.0 30.0)
  end
  begin
     id 12 
     name upperback
     direction 0.00860018 0.999959 -0.002711   
     length 2.1726   
     axis 0 -0 0   XYZ
    dof rx ry rz
    limits (-20.0 45.0)
           (-30.0 30.0)
           (-30.0 30.0)
  end
  begin
     id 13 
     name thorax
     direction 0.015211 0.999782 -0.0143191   
     length 2.17061   
     axis 0 -0 0   XYZ
    dof rx ry rz
    limits (-20.0 45.0)
           (-30.0 30.0)
           (-30.0 30.0)
  end
  begin
     id 14 
     name lowerneck
     direction -0.0140143 0.999447 0.030145   
     length 2.26749   
     axis 0 -0 0   XYZ
    dof rx ry rz
    limits (-20.0 45.0)
           (-30.0 30.0)
           (-30.0 30.0)
  end
  begin
     id 15 
     name upperneck
     direction 0.118062 0.961438 -0.248392   
     length 2.22728   
     axis 0 -0 0   XYZ
    dof rx ry rz
    limits (-20.0 45.0)
           (-30.0 30.0)
           (-30.0 30.0)
  end
  begin
     id 16
     name head
     direction 0.0431885 0.9954 -0.085514  
     length 2.28786  
     axis 0 -0 0   XYZ
    dof rx ry rz
    limits (-20.0 45.0)
           (-30.0 30.0)
           (-30.0 30.0)
  end
  begin
     id 17 
     name lclavicle
     direction 0.912126 0.409548 0.0172323  
     length 4.31571  
     axis 0 -0 0   XYZ
    dof ry rz
    limits (-20.0 10.0)
           (0.0 20.0)
  end
  begin
     id 18 
     name lhumerus
     direction 1 -4.48977e-011 1.93091e-027   
     length 5.13658   
     axis 180 -30 -90   XYZ
    dof rx ry rz
    limits (-60.0 90.0)
           (-90.0 90.0)
           (-90.0 90.0)
  end
  begin
     id 19
     name lradius
     direction 1 -4.48916e-011 6.84018e-027   
     length 3.22473   
     axis 180 -30 -90   XYZ
    dof rx
    limits (-10.0 170.0)
  end
  begin
     id 20
     name lwrist
     direction 1 -4.48987e-011 7.01981e-027   
     length 1.61236   
     axis -4.37994e-015 90 90   XYZ
    dof ry
    limits (-180.0 0.0)
 end
  begin
     id 21 
     name lhand
     direction 1 -4.49037e-011 1.40335e-026   
     length 0.936406   
     axis -8.96029e-015 90 90   XYZ
    dof rx rz
    limits (-90.0 90.0)
           (-45.0 45.0)
  end
  begin
     id 22 
     name lfingers
     direction 1 -4.48886e-011 2.8104e-026   
     length 0.754955   
     axis -1.79203e-014 90 90   XYZ
    dof rx
    limits (0.0 90.0)
  end
  begin
     id 23
     name lthumb
     direction 0.707107 -6.34937e-011 0.707107   
     length 1.08397   
     axis -90 45 -4.48555e-014   XYZ
    dof rx rz
    limits (-45.0 45.0)
           (-45.0 45.0)
  end
  begin
     id 24 
     name rclavicle
     direction -0.947962 0.317997 0.0156638   
     length 4.86918  
     axis 0 -0 0   XYZ 
    dof ry rz
    limits (-10.0 20.0)
           (-20.0 0.0)
  end
  begin
     id 25 
     name rhumerus
     direction -1 -4.48951e-011 2.80534e-018  
     length 5.60911   
     axis 180 30 90   XYZ
    dof rx ry rz
    limits (-90.0 60.0)
           (-90.0 90.0)
           (-90.0 90.0)
  end
  begin
     id 26 
     name rradius
     direction -1 -4.4898e-011 2.11315e-027   
     length 3.38704   
     axis 180 30 90   XYZ
    dof rx
    limits (-10.0 170.0)
  end
  begin
     id 27 
     name rwrist
     direction -1 -4.48933e-011 7.02314e-027   
     length 1.69352   
     axis -4.37994e-015 -90 -90   XYZ
    dof ry
    limits (-180.0 0.0)
  end
  begin
     id 28
     name rhand
     direction -1 -4.48937e-011 1.40458e-026   
     length 0.755878   
     axis -8.96029e-015 -90 -90   XYZ
    dof rx rz
    limits (-90.0 90.0)
           (-45.0 45.0)
  end
  begin
     id 29
     name rfingers
     direction -1 -4.4901e-011 2.80737e-026   
     length 0.609409   
     axis -1.79203e-014 -90 -90   XYZ
    dof rx
    limits (0.0 90.0)
  end
  begin
     id 30
     name rthumb
     direction -0.707107 -6.34968e-011 0.707107   
     length 0.874992   
     axis -90 -45 4.48555e-014   XYZ
    dof rx rz
    limits (-45.0 45.0)
           (-45.0 45.0)
  end
:hierarchy
  begin
    root lhipjoint rhipjoint lowerback
    lhipjoint lfemur
    lfemur ltibia
    ltibia lfoot
    lfoot ltoes
    rhipjoint rfemur
    rfemur rtibia
    rtibia rfoot
    rfoot rtoes
    lowerback upperback
    upperback thorax
    thorax lowerneck lclavicle rclavicle
    lowerneck upperneck
    upperneck head
    lclavicle lhumerus
    lhumerus lradius
    lradius lwrist
    lwrist lhand lthumb
    lhand lfingers
    rclavicle rhumerus
    rhumerus rradius
    rradius rwrist
    rwrist rhand rthumb
    rhand rfingers
  end

#!OML:ASF C:\ViconDB\ViconDB\414\Spring2016\041811\Spring2016.ASF
:FULLY-SPECIFIED
:DEGREES
77
root 11.1206 17.739 18.8521 8.47607 -87.5888 -8.30052
lowerback 2.37996 -0.918263 -4.00724
upperback 0.581616 -1.33304 -0.352864
thorax -0.654325 -0.665702 1.92117
lowerneck 5.23528 -11.7976 -27.6112
upperneck 15.9764 -22.375 26.2855
head 10.6002 -11.7744 11.647
rclavicle 6.90777e-015 -9.14409e-015
rhumerus 0.0292652 -25.0178 -0.954848
rradius 67.9039
rwrist 16.1411
rhand -56.043 -23.7375
rfingers 7.12502
rthumb -28.3773 -51.6066
lclavicle 6.90777e-015 -9.14409e-015
lhumerus -8.03131 8.14883 3.1672
lradius 45.5721
lwrist 5.1539
lhand -45.0315 35.5414
lfingers 7.12502
lthumb -17.814 64.7455
rfemur 166.129 26.2854 -177.806
rtibia 32.7043
rfoot -9.09634 -46.7705
rtoes -28.3545
lfemur -13.1179 -2.93206 -8.85271
ltibia 40.0742
lfoot -27.8046 4.39199
ltoes -16.2501
78
root 11.1219 17.7364 18.8599 7.3358 -87.511 -7.16649
lowerback 2.41493 -0.932887 -4.04021
upperback 0.599595 -1.35465 -0.344733
thorax -0.653124 -0.676815 1.94901
lowerneck 5.29999 -11.8301 -27.6512
upperneck 15.8177 -22.4329 26.4075
head 10.5758 -11.8047 11.6893
rclavicle -4.19933e-015 1.19271e-015
rhumerus 0.011785 -25.0685 -0.96064
rradius 67.9286
rwrist 16.2271
rhand -55.911 -23.3004
rfingers 7.12502
rthumb -28.2512 -51.1905
lclavicle -4.19933e-015 1.19271e-015
lhumerus -8.16936 8.07847 3.21846
lradius 45.5283
lwrist 5.17773
lhand -44.9657 35.4862
lfingers 7.12502
lthumb -17.7507 64.696
rfemur 166.116 26.1772 -177.904
rtibia 32.6578
rfoot -8.87164 -46.7417
rtoes -28.4711
lfemur -13.2026 -2.76872 -8.89061
ltibia 40.1722
lfoot -27.8046 4.39199
ltoes -16.2501
79
root 11.1288 17.7344 18.8662 6.77173 -87.455 -6.64935
lowerback 2.61144 -0.929072 -4.10071
upperback 0.579424 -1.36071 -0.295423
thorax -0.780903 -0.676897 2.0379
lowerneck 5.44108 -11.8467 -27.7448
upperneck 15.6857 -22.498 26.5263
head 10.5557 -11.8492 11.7456
rclavicle 1.16786e-014 2.14687e-014
rhumerus -0.0147289 -24.9822 -0.916465
rradius 68.0119
rwrist 16.1619
rhand -55.9908 -24.0381
rfingers 7.12502
rthumb -28.3274 -51.9156
lclavicle 1.16786e-014 2.14687e-014
lhumerus -8.35258 8.08167 3.27825
lradius 45.4219
lwrist 5.03408
lhand -45.0155 35.2906
lfingers 7.12502
lthumb -17.7986 64.496
rfemur 166.083 25.723 -177.993
rtibia 32.6191
rfoot -8.21817 -46.6631
rtoes -28.514
lfemur -13.2558 -2.66503 -8.90476
ltibia 40.2503
lfoot -27.8046 4.39199
ltoes -16.2501
80
root 11.1333 17.7327 18.8738 4.64431 -87.4282 -4.50021
lowerback 2.6452 -0.923852 -4.16768
upperback 0.600709 -1.35764 -0.331305
thorax -0.777466 -0.67589 2.03887
lowerneck 5.52104 -11.8758 -27.7401
upperneck 15.5013 -22.5718 26.7226
head 10.5312 -11.8865 11.8101
rclavicle -1.03617e-014 7.95139e-016
rhumerus -0.0817666 -25.0817 -0.953942
rradius 68.0214
rwrist 16.235
rhand -55.9732 -23.6974
rfingers 7.12502
rthumb -28.3106 -51.5776
lclavicle -1.03617e-014 7.95139e-016
lhumerus -8.47134 7.99281 3.24305
lradius 45.5213
lwrist 5.47629
lhand -45.0468 35.4919
lfingers 7.12502
lthumb -17.8286 64.6946
rfemur 166.121 25.5075 -178.129
rtibia 32.5844
rfoot -7.80783 -46.6134
rtoes -28.3938
lfemur -13.3609 -2.5527 -9.01851
ltibia 40.3297
lfoot -27.8046 4.39199
ltoes -16.2501
81
root 11.1374 17.7332 18.8813 4.61425 -87.3446 -4.44041
lowerback 2.70068 -0.944988 -4.16671
upperback 0.621272 -1.38756 -0.292774
thorax -0.784501 -0.69097 2.07966
lowerneck 5.49284 -11.9348 -27.7776
upperneck 15.4013 -22.653 26.8196
head 10.5503 -11.9206 11.8314
rclavicle -4.24902e-015 9.54166e-015
rhumerus -0.0423709 -25.2217 -1.02371
rradius 68.0398
rwrist 16.2838
rhand -55.8046 -23.7955
rfingers 7.12502
rthumb -28.1495 -51.7024
lclavicle -4.24902e-015 9.54166e-015
lhumerus -8.55948 8.15286 3.38322
lradius 45.4607
lwrist 5.64121
lhand -45.23 36.031
lfingers 7.12502
lthumb -18.0049 65.2176
rfemur 166.153 25.3141 -178.163
rtibia 32.5502
rfoot -7.41623 -46.5804
rtoes -28.3455
lfemur -13.4788 -2.48571 -9.02409
ltibia 40.3917
lfoot -27.8046 4.39199
ltoes -16.2501
82
root 11.1441 17.7307 18.8876 5.22598 -87.2403 -5.06367
lowerback 2.78927 -0.955938 -4.10376
upperback 0.629142 -1.40431 -0.274002
thorax -0.825984 -0.698702 2.06597
lowerneck 5.64054 -11.954 -27.8114
upperneck 15.2538 -22.7269 26.9643
head 10.5232 -11.9671 11.8871
rclavicle 2.8948e-014 8.74653e-015
rhumerus -0.0916922 -25.2857 -1.06912
rradius 68.029
rwrist 16.2809
rhand -55.849 -23.3609
rfingers 7.12502
rthumb -28.1919 -51.2608
lclavicle 2.8948e-014 8.74653e-015
lhumerus -8.60233 8.3808 3.39855
lradius 45.2712
lwrist 5.39269
lhand -45.0892 35.7504
lfingers 7.12502
lthumb -17.8695 64.9494
rfemur 166.18 25.6974 -178.119
rtibia 32.504
rfoot -7.82924 -46.6392
rtoes -28.4076
lfemur -13.5642 -2.48696 -8.99578
ltibia 40.4498
lfoot -27.8046 4.39199
ltoes -16.2501
83
root 11.15 17.7284 18.8945 4.19091 -87.1575 -3.99196
lowerback 2.81947 -0.960418 -4.13638
upperback 0.649448 -1.41238 -0.27047
thorax -0.820612 -0.703181 2.08849
lowerneck 5.69274 -11.9895 -27.7942
upperneck 15.1133 -22.7907 27.0869
head 10.5031 -11.9972 11.9191
rclavicle 8.49804e-015 -1.43125e-014
rhumerus -0.152231 -25.4025 -1.10794
rradius 68.0398
rwrist 16.3328
rhand -55.8713 -23.3137
rfingers 7.12502
rthumb -28.2132 -51.2101
lclavicle 8.49804e-015 -1.43125e-014
lhumerus -8.6699 8.50602 3.43524
lradius 45.2566
lwrist 5.4422
lhand -45.0304 36.2716
lfingers 7.12502
lthumb -17.8129 65.4758
rfemur 166.244 25.4632 -178.213
rtibia 32.4377
rfoot -7.51913 -46.5887
rtoes -28.7829
lfemur -13.6604 -2.55166 -9.05321
ltibia 40.5141
lfoot -27.8046 4.39199
ltoes -16.2501
84
root 11.1565 17.7325 18.9013 3.13224 -87.081 -2.79723
lowerback 2.78724 -0.963887 -4.19473
upperback 0.618341 -1.41728 -0.248419
thorax -0.83219 -0.704666 2.14367
lowerneck 5.73069 -12.0383 -27.8264
upperneck 15.023 -22.8812 27.1881
head 10.5165 -12.0423 11.9453
rclavicle 1.63997e-014 7.15625e-015
rhumerus -0.215089 -25.4175 -1.0816
rradius 68.0606
rwrist 16.2386
rhand -55.7895 -23.4038
rfingers 7.12502
rthumb -28.135 -51.313
lclavicle 1.63997e-014 7.15625e-015
lhumerus -8.78464 8.62066 3.46389
lradius 45.2485
lwrist 5.52515
lhand -44.9563 35.8856
lfingers 7.12502
lthumb -17.7416 65.0963
rfemur 166.407 24.4916 -178.32
rtibia 32.3515
rfoot -5.92812 -46.4334
rtoes -28.5896
lfemur -13.8994 -2.44376 -9.12242
ltibia 40.5908
lfoot -27.8046 4.39199
ltoes -16.2501
